# xmcd
#
# Track frame offsets:
#	150
#	24545
#	47707
#	89815
#	127835
#	186505
#	239602
#
# Disc length: 3520 seconds
#
# Revision: 2
# Processed by: cddbd v1.5.2PL0 Copyright (c) Steve Scherf et al.
# Submitted via: EZCDAudioConverter 4.0.4.2
#
DISCID=600dbe07
DTITLE=Mick Taylor - Coastin Home
DYEAR=1900
DGENRE=blues
TTITLE0=Sweet home Chicago
TTITLE1=Coastin' home
TTITLE2=I wonder why
TTITLE3=You gotta move
TTITLE4=You shook me
TTITLE5=Can't you hear me knockin'
TTITLE6=Turns to gold
EXTD=
EXTT0=
EXTT1=
EXTT2=
EXTT3=
EXTT4=
EXTT5=
EXTT6=
PLAYORDER=
